<mxfile host="app.diagrams.net" modified="2024-07-04T12:32:56.954Z" agent="Mozilla/5.0 (Windows NT 10.0; Win64; x64) AppleWebKit/537.36 (KHTML, like Gecko) Chrome/126.0.0.0 Safari/537.36" version="24.6.4" etag="snHr-mUMYjoNPNtK1GEr" type="github">
  <diagram name="페이지-1" id="X--cJp4IXPpeWRmLB4SZ">
    <mxGraphModel>
      <root>
        <mxCell id="0" />
        <mxCell id="1" parent="0" />
      </root>
    </mxGraphModel>
  </diagram>
</mxfile>
